<svg id="eLVsgvJtBKW1" xmlns="http://www.w3.org/2000/svg" xmlns:xlink="http://www.w3.org/1999/xlink" viewBox="0 0 300 300" shape-rendering="geometricPrecision" text-rendering="geometricPrecision">
<style><![CDATA[
#eLVsgvJtBKW9_ts {animation: eLVsgvJtBKW9_ts__ts 2400ms linear infinite normal forwards}@keyframes eLVsgvJtBKW9_ts__ts { 0% {transform: translate(83.381592px,213.22191px) scale(0,1)} 15.833333% {transform: translate(83.381592px,213.22191px) scale(0,1);animation-timing-function: cubic-bezier(0.175,0.885,0.32,1.275)} 41.666667% {transform: translate(83.381592px,213.22191px) scale(1,1)} 65.833333% {transform: translate(83.381592px,213.22191px) scale(1,1);animation-timing-function: cubic-bezier(0.6,-0.28,0.735,0.045)} 82.5% {transform: translate(83.381592px,213.22191px) scale(0,1)} 100% {transform: translate(83.381592px,213.22191px) scale(0,1)}} #eLVsgvJtBKW12_ts {animation: eLVsgvJtBKW12_ts__ts 2400ms linear infinite normal forwards}@keyframes eLVsgvJtBKW12_ts__ts { 0% {transform: translate(91.460069px,194.682721px) scale(0,1)} 8.333333% {transform: translate(91.460069px,194.682721px) scale(0,1);animation-timing-function: cubic-bezier(0.175,0.885,0.32,1.275)} 33.333333% {transform: translate(91.460069px,194.682721px) scale(1,1)} 74.166667% {transform: translate(91.460069px,194.682721px) scale(1,1);animation-timing-function: cubic-bezier(0.6,-0.28,0.735,0.045)} 90.833333% {transform: translate(91.460069px,194.682721px) scale(0,1)} 100% {transform: translate(91.460069px,194.682721px) scale(0,1)}} #eLVsgvJtBKW20_ts {animation: eLVsgvJtBKW20_ts__ts 2400ms linear infinite normal forwards}@keyframes eLVsgvJtBKW20_ts__ts { 0% {transform: translate(6.271932px,5.034102px) scale(0,0)} 39.166667% {transform: translate(6.271932px,5.034102px) scale(0,0);animation-timing-function: cubic-bezier(0.175,0.885,0.32,1.275)} 50% {transform: translate(6.271932px,5.034102px) scale(1.6,1.6)} 100% {transform: translate(6.271932px,5.034102px) scale(1.6,1.6)}} #eLVsgvJtBKW20 {animation: eLVsgvJtBKW20_c_o 2400ms linear infinite normal forwards}@keyframes eLVsgvJtBKW20_c_o { 0% {opacity: 1} 50% {opacity: 1} 65% {opacity: 0} 100% {opacity: 0}} #eLVsgvJtBKW21_ts {animation: eLVsgvJtBKW21_ts__ts 2400ms linear infinite normal forwards}@keyframes eLVsgvJtBKW21_ts__ts { 0% {transform: translate(20.964279px,14.797315px) rotate(-13.056894deg) scale(0,0)} 45% {transform: translate(20.964279px,14.797315px) rotate(-13.056894deg) scale(0,0);animation-timing-function: cubic-bezier(0.175,0.885,0.32,1.275)} 55.833333% {transform: translate(20.964279px,14.797315px) rotate(-13.056894deg) scale(1.331409,1.331404)} 100% {transform: translate(20.964279px,14.797315px) rotate(-13.056894deg) scale(1.331409,1.331404)}} #eLVsgvJtBKW21 {animation: eLVsgvJtBKW21_c_o 2400ms linear infinite normal forwards}@keyframes eLVsgvJtBKW21_c_o { 0% {opacity: 1} 55.833333% {opacity: 1} 75% {opacity: 0} 100% {opacity: 0}} #eLVsgvJtBKW22_ts {animation: eLVsgvJtBKW22_ts__ts 2400ms linear infinite normal forwards}@keyframes eLVsgvJtBKW22_ts__ts { 0% {transform: translate(24.498154px,1.653562px) scale(0,0)} 41.666667% {transform: translate(24.498154px,1.653562px) scale(0,0);animation-timing-function: cubic-bezier(0.175,0.885,0.32,1.275)} 50.833333% {transform: translate(24.498154px,1.653562px) scale(1,1)} 100% {transform: translate(24.498154px,1.653562px) scale(1,1)}} #eLVsgvJtBKW22 {animation: eLVsgvJtBKW22_c_o 2400ms linear infinite normal forwards}@keyframes eLVsgvJtBKW22_c_o { 0% {opacity: 1} 52.5% {opacity: 1} 68.333333% {opacity: 0} 100% {opacity: 0}} #eLVsgvJtBKW23_to {animation: eLVsgvJtBKW23_to__to 2400ms linear infinite normal forwards}@keyframes eLVsgvJtBKW23_to__to { 0% {transform: translate(104.861571px,222.335313px);animation-timing-function: cubic-bezier(0.445,0.05,0.55,0.95)} 16.666667% {transform: translate(104.51381px,244.11px);animation-timing-function: cubic-bezier(0.445,0.05,0.55,0.95)} 25% {transform: translate(104.861571px,230px);animation-timing-function: cubic-bezier(0.445,0.05,0.55,0.95)} 33.333333% {transform: translate(104.51381px,244.11px);animation-timing-function: cubic-bezier(0.445,0.05,0.55,0.95)} 50% {transform: translate(104.861571px,222.335313px)} 100% {transform: translate(104.861571px,222.335313px)}} #eLVsgvJtBKW23_tr {animation: eLVsgvJtBKW23_tr__tr 2400ms linear infinite normal forwards}@keyframes eLVsgvJtBKW23_tr__tr { 0% {transform: rotate(125.775358deg)} 16.666667% {transform: rotate(100deg);animation-timing-function: cubic-bezier(0.445,0.05,0.55,0.95)} 25% {transform: rotate(110deg)} 33.333333% {transform: rotate(100deg);animation-timing-function: cubic-bezier(0.445,0.05,0.55,0.95)} 50% {transform: rotate(125.775358deg)} 100% {transform: rotate(125.775358deg)}}
]]></style>
<path d="M633.09,790.35c0,73.1-57.28,162.73-132.35,132.35-67.76-27.42-132.35-59.26-132.35-132.35s48.01-73.83,118.2-103.71c67.26-28.64,146.5,30.61,146.5,103.71Z" transform="matrix(.982718 0 0 0.982718-340.849685-613.116144)" fill="#11b1d5" fill-opacity="0.15" stroke-width="0"/><g transform="translate(.000001-22.999999)"><g style="isolation:isolate" transform="translate(29.999893 50.099987)"><g><path d="M181.8,166.7c0-22.6-.1-45.1.1-67.6.1-6.3-4.1-9.3-9.4-9.3-35.8.2-71.6.1-107.4.1-6.6,0-9.4,2.8-9.4,9.4v135.1c0,5.9,2.9,8.9,8.8,8.9h108.8c5.5,0,8.5-3.1,8.5-8.5Z" fill="#27a8c9"/><path d="M216.9,139.7v-70.3c0-6.7-2.9-9.7-9.5-9.7h-111.1l-3.4.2c-4.128382.261579-7.355916,3.663574-7.4,7.8-.1,4.1,0,8.3,0,12.4c0,1.4.5,2,1.9,2h70.7c5.3,0,10.5-.2,15.8,0c9.6.3,15.8,6.8,15.8,16.5v117.1c.049852.732486.049852,1.467514,0,2.2c0,1.1.3,1.8,1.6,1.8c6.3-.1,12.6.1,18.9-.2c3.9-.2,6.5-3.4,6.7-7.4.1-1.9,0-3.8,0-5.7v-66.7Z" fill="#7de884"/><path style="mix-blend-mode:multiply" d="M87.9,131.1c-.4,4.3,1.3,7.9,4.2,11.1l27.5,30.9c1,1.1,1.6,1.4,2.7.1c9.2-10.4,18.6-20.6,27.7-31.1s4-24.6-7.9-27.9c-7.1-2-13.4-.1-18.8,4.7-.8.7-1.6,1.9-2.5,2s-1.4-1.4-2.2-2c-5.6-5-12-6.7-19.3-4.5s-12.1,8.5-11.4,16.7Z" opacity="0.35" fill="#005066"/><g id="eLVsgvJtBKW9_ts" transform="translate(83.381592,213.22191) scale(0,1)"><g transform="translate(-83.381592,-213.22191)"><path style="mix-blend-mode:multiply" d="M120.8,211.2h-32.4c-1.578277.105449-2.803519,1.418209-2.8,3-.130938,1.57681.946621,2.999188,2.5,3.3h63.7c.639863.031899,1.280804-.035569,1.9-.2c1.520567-.317592,2.59343-1.681344,2.544141-3.233941s-1.206492-2.845553-2.744141-3.066059h-32.7Z" opacity="0.35" fill="#005066"/><path d="M118.6,209.1h-32.4c-1.593958.154964-2.807515,1.498545-2.8,3.1-.177133,1.569486.934292,2.992109,2.5,3.2.720955.165593,1.461003.23287,2.2.2h63.4c1.635546-.25719,2.780322-1.754205,2.6-3.4.003519-1.581791-1.221723-2.894551-2.8-3h-32.7Z" fill="#1b94bf"/></g></g><g id="eLVsgvJtBKW12_ts" transform="translate(91.460069,194.682721) scale(0,1)"><g transform="translate(-91.460068,-194.682719)"><path style="mix-blend-mode:multiply" d="M120.8,193.6h-22.2c-.838406-.037459-1.678212.029726-2.5.2-.756204.145235-1.4236.585255-1.855051,1.223054s-.591532,1.421003-.444949,2.176946c-.003758,1.471544,1.132209,2.694894,2.6,2.8h49.3c1.578487-.20777,2.719755-1.612408,2.6-3.2.065718-1.495313-1.017349-2.794994-2.5-3-.821788-.170274-1.661594-.237459-2.5-.2Z" opacity="0.35" fill="#005066"/><path d="M118.6,191.5h-22.2c-.86759-.06871-1.740251-.035146-2.6.1-1.557983.394133-2.556443,1.91353-2.3,3.5.129638,1.452104,1.253569,2.617662,2.7,2.8h49.2c1.578487-.20777,2.719755-1.612408,2.6-3.2.125401-1.49949-.916903-2.845799-2.4-3.1-.826369-.132855-1.66566-.166426-2.5-.1Z" fill="#1b94bf"/></g></g><path style="mix-blend-mode:screen" d="M85.7,129c-.4,4.2,1.3,7.9,4.1,11.1l27.6,30.8c1,1.2,1.5,1.5,2.7.1c9.2-10.4,18.6-20.6,27.7-31.1s4-24.5-8-27.9c-7-1.9-13.3,0-18.8,4.8-.8.7-1.5,1.9-2.4,1.9s-1.4-1.3-2.2-2c-5.6-4.9-12.1-6.6-19.3-4.5-7.20333,2.322643-11.902809,9.248192-11.4,16.8Z" opacity="0.8" fill="#86e5ea"/><circle style="mix-blend-mode:screen" r="4.9" transform="translate(97.1 125.1)" fill="#82e6f1"/><circle style="mix-blend-mode:screen" r="2" transform="translate(104.9 118.3)" fill="#82e6f1"/></g></g><g transform="matrix(1.74123 0 0 1.74123 123.740002 52.896888)"><g><g id="eLVsgvJtBKW20_ts" transform="translate(6.271932,5.034102) scale(0,0)"><path id="eLVsgvJtBKW20" d="M32.9,19.2c-.4-3.2,2.9-3,2.2.2c3.2-.4,3.1,2.9-.1,2.2.4,3.2-2.9,3.1-2.2-.1-3.2.3-3.1-2.9.1-2.3Z" transform="translate(-33.950002,-20.424123)" fill="#7de884"/></g><g id="eLVsgvJtBKW21_ts" transform="translate(20.964279,14.797315) rotate(-13.056894) scale(0,0)"><path id="eLVsgvJtBKW21" d="M32.9,19.2c-.4-3.2,2.9-3,2.2.2c3.2-.4,3.1,2.9-.1,2.2.4,3.2-2.9,3.1-2.2-.1-3.2.3-3.1-2.9.1-2.3Z" transform="translate(-33.950002,-20.424123)" fill="#27a8c9"/></g><g id="eLVsgvJtBKW22_ts" transform="translate(24.498154,1.653562) scale(0,0)"><path id="eLVsgvJtBKW22" d="M28.3,1.9c.1,2.5-3.9,2.5-3.8,0s3.9-2.5,3.8,0Z" transform="translate(-26.400044,-1.9)" fill="#27a8c9"/></g></g></g><g id="eLVsgvJtBKW23_to" transform="translate(104.861571,222.335313)"><g id="eLVsgvJtBKW23_tr" transform="rotate(125.775358)"><g style="isolation:isolate" transform="translate(-12.550003,-11.400002)"><path d="M8,185.6h11.5c3.566743-.108132,6.401639-3.031618,6.4-6.6v-9.8l-24.5.2v9.8c-.026795,1.714645.635642,3.368319,1.838791,4.590267s2.846354,1.909942,4.561209,1.909733Z" transform="translate(-.8-91.099998)" fill="#197f9d"/><polygon points="0.6,70.1 25.1,69.9 24.9,11.5 24.9,11.4 0,11.7 0.6,70.1" fill="#81e5f0"/><path style="mix-blend-mode:screen" d="M0.8,106.8l24.8-.2v-4.1L14.5,91.7c-.359854-.392204-.867723-.615477-1.4-.615477s-1.040146.223273-1.4.615477L0.8,102.8Z" transform="translate(-.8-91.099998)" fill="#82e6f1"/><circle r="4.5" transform="translate(16.9 24.1)" fill="#bdfafd"/><circle r="2.1" transform="translate(17.7 35.6)" fill="#bdfafd"/></g></g></g></g></svg>
