<svg id="euD4bfy5OBc1" xmlns="http://www.w3.org/2000/svg" xmlns:xlink="http://www.w3.org/1999/xlink" viewBox="0 0 300 300" shape-rendering="geometricPrecision" text-rendering="geometricPrecision">
<style><![CDATA[
#euD4bfy5OBc4 {animation: euD4bfy5OBc4_f_p 2400ms linear infinite normal forwards}@keyframes euD4bfy5OBc4_f_p { 0% {fill: #27a8c9} 24.166667% {fill: #27a8c9} 37.5% {fill: #7de884} 79.166667% {fill: #7de884} 95.833333% {fill: #27a8c9} 100% {fill: #27a8c9}} #euD4bfy5OBc7 {animation: euD4bfy5OBc7_f_p 2400ms linear infinite normal forwards}@keyframes euD4bfy5OBc7_f_p { 0% {fill: #86e5ea} 24.166667% {fill: #86e5ea} 37.5% {fill: #b1fac1} 79.166667% {fill: #b1fac1} 95.833333% {fill: #86e5ea} 100% {fill: #86e5ea}} #euD4bfy5OBc37_ts {animation: euD4bfy5OBc37_ts__ts 2400ms linear infinite normal forwards}@keyframes euD4bfy5OBc37_ts__ts { 0% {transform: translate(6.271932px,5.034102px) scale(0,0)} 35% {transform: translate(6.271932px,5.034102px) scale(0,0);animation-timing-function: cubic-bezier(0.175,0.885,0.32,1.275)} 45.833333% {transform: translate(6.271932px,5.034102px) scale(1.6,1.6)} 100% {transform: translate(6.271932px,5.034102px) scale(1.6,1.6)}} #euD4bfy5OBc37 {animation: euD4bfy5OBc37_c_o 2400ms linear infinite normal forwards}@keyframes euD4bfy5OBc37_c_o { 0% {opacity: 1} 45.833333% {opacity: 1} 60.833333% {opacity: 0} 100% {opacity: 0}} #euD4bfy5OBc38_ts {animation: euD4bfy5OBc38_ts__ts 2400ms linear infinite normal forwards}@keyframes euD4bfy5OBc38_ts__ts { 0% {transform: translate(20.964279px,14.797315px) rotate(-13.056894deg) scale(0,0)} 40.833333% {transform: translate(20.964279px,14.797315px) rotate(-13.056894deg) scale(0,0);animation-timing-function: cubic-bezier(0.175,0.885,0.32,1.275)} 51.666667% {transform: translate(20.964279px,14.797315px) rotate(-13.056894deg) scale(1.331409,1.331404)} 100% {transform: translate(20.964279px,14.797315px) rotate(-13.056894deg) scale(1.331409,1.331404)}} #euD4bfy5OBc38 {animation: euD4bfy5OBc38_c_o 2400ms linear infinite normal forwards}@keyframes euD4bfy5OBc38_c_o { 0% {opacity: 1} 51.666667% {opacity: 1} 70.833333% {opacity: 0} 100% {opacity: 0}} #euD4bfy5OBc39_ts {animation: euD4bfy5OBc39_ts__ts 2400ms linear infinite normal forwards}@keyframes euD4bfy5OBc39_ts__ts { 0% {transform: translate(24.498154px,1.653562px) scale(0,0)} 37.5% {transform: translate(24.498154px,1.653562px) scale(0,0);animation-timing-function: cubic-bezier(0.175,0.885,0.32,1.275)} 46.666667% {transform: translate(24.498154px,1.653562px) scale(1,1)} 100% {transform: translate(24.498154px,1.653562px) scale(1,1)}} #euD4bfy5OBc39 {animation: euD4bfy5OBc39_c_o 2400ms linear infinite normal forwards}@keyframes euD4bfy5OBc39_c_o { 0% {opacity: 1} 48.333333% {opacity: 1} 64.166667% {opacity: 0} 100% {opacity: 0}} #euD4bfy5OBc40_to {animation: euD4bfy5OBc40_to__to 2400ms linear infinite normal forwards}@keyframes euD4bfy5OBc40_to__to { 0% {transform: translate(30.46542px,153.249082px);animation-timing-function: cubic-bezier(0.55,0.055,0.675,0.19)} 25% {transform: translate(54.935941px,138.13379px);animation-timing-function: cubic-bezier(0.215,0.61,0.355,1)} 50% {transform: translate(30.46542px,153.249082px)} 100% {transform: translate(30.46542px,153.249082px)}}
]]></style>
<path d="M280.77,241.96c.3,2.47.46,4.99.46,7.54c0,34.25-27.77,62.02-62.02,62.02-23.13,0-43.31-12.67-53.97-31.45-19.79-33.69-21.91-37.35-65.74-60.94-25.65-13.15-43.21-39.87-43.21-70.68c0-43.84,35.54-79.38,79.38-79.38c11.3,0,22.05,2.37,31.78,6.62c45.9,18.99,50.38,17.43,80.32,11.09c3.57-.83,7.29-1.27,11.11-1.27c27.04,0,48.96,21.92,48.96,48.96c0,10.63-3.39,20.46-9.14,28.49-20.46,29.14-23.01,34.19-17.93,79Z" transform="matrix(1.062057 0 0 1.032431-37.336867-22.011643)" opacity="0.15" fill="#11b1d5" stroke-width="0"/><g transform="translate(-5.999999 20.000001)"><path id="euD4bfy5OBc4" d="M181.8,166.7c0-22.6-.1-45.1.1-67.6.1-6.3-4.1-9.3-9.4-9.3-35.8.2-71.6.1-107.4.1-6.6,0-9.4,2.8-9.4,9.4v135.1c0,5.9,2.9,8.9,8.8,8.9h108.8c5.5,0,8.5-3.1,8.5-8.5Z" transform="matrix(.690582 0 0 0.570447 21.611609 8.248374)" fill="#27a8c9"/><g transform="matrix(.858203 0 0 0.858203 14.888755 14.799468)"><path style="mix-blend-mode:multiply" d="M87.9,131.1c-.4,4.3,1.3,7.9,4.2,11.1l27.5,30.9c1,1.1,1.6,1.4,2.7.1c9.2-10.4,18.6-20.6,27.7-31.1s4-24.6-7.9-27.9c-7.1-2-13.4-.1-18.8,4.7-.8.7-1.6,1.9-2.5,2s-1.4-1.4-2.2-2c-5.6-5-12-6.7-19.3-4.5s-12.1,8.5-11.4,16.7Z" transform="translate(-15.147524-38.293673)" opacity="0.35" fill="#00665a"/><path id="euD4bfy5OBc7" style="mix-blend-mode:screen" d="M85.7,129c-.4,4.2,1.3,7.9,4.1,11.1l27.6,30.8c1,1.2,1.5,1.5,2.7.1c9.2-10.4,18.6-20.6,27.7-31.1s4-24.5-8-27.9c-7-1.9-13.3,0-18.8,4.8-.8.7-1.5,1.9-2.4,1.9s-1.4-1.3-2.2-2c-5.6-4.9-12.1-6.6-19.3-4.5-7.20333,2.322643-11.902809,9.248192-11.4,16.8Z" transform="translate(-15.147524-38.293673)" opacity="0.8" fill="#86e5ea"/><circle style="mix-blend-mode:screen" r="4.9" transform="translate(81.952475 86.806325)" fill="#82e6f1"/><circle style="mix-blend-mode:screen" r="2" transform="translate(89.752475 80.006327)" fill="#82e6f1"/></g></g><g transform="matrix(1 0 0 0.826037 100.677092 37.962771)"><path d="M181.8,166.7c0-22.6-.1-45.1.1-67.6.1-6.3-4.1-9.3-9.4-9.3-35.8.2-71.6.1-107.4.1-6.6,0-9.4,2.8-9.4,9.4v135.1c0,5.9,2.9,8.9,8.8,8.9h108.8c5.5,0,8.5-3.1,8.5-8.5Z" transform="matrix(.690583 0 0 0.690583 21.61149-11.760276)" fill="#27a8c9"/><g style="isolation:isolate" transform="matrix(.765981 0 0 0.765981-46.940346 59.31293)"><path style="mix-blend-mode:multiply" d="M232.4,54.7c11.9-12.2,7.2-36.1,7.2-36.1s-24.1-4.1-36,8.1c-4.2,4.3-6.3,10.1-7.3,15.7-.942553-3.068538-2.585839-5.875819-4.8-8.2-9.5-9.8-28.7-6.5-28.7-6.5s-3.7,19.1,5.8,28.8c7.6,7.8,21.3,7.3,26.6,6.8v16.9h-.5c-7.899114-.006947-14.823664,5.278656-16.9,12.9-2.456966-1.945194-5.792435-2.36098-8.651751-1.078493s-4.766991,4.049978-4.948249,7.178493h67.2c-2.735626-6.399848-9.040092-10.537153-16-10.5-1.767064-.043886-3.527841.227002-5.2.8-2.100543-3.828846-5.507826-6.774726-9.6-8.3v-17.9c7.4.6,22.9.5,31.8-8.6Z" opacity="0.35" fill="#005066"/><path d="M193.3,60.5c-1.114117-6.785309-1.147868-13.704145-.1-20.5-.942553-3.068538-2.585839-5.875819-4.8-8.2-9.5-9.8-28.6-6.5-28.6-6.5s-3.8,19.1,5.7,28.8c7.6,7.8,21.4,7.3,26.6,6.8v16.9c1.838774.071465,3.65757.408279,5.4,1v-17.8c-2.6-.2-4.2-.5-4.2-.5Z" fill="#8bdfe5"/><path d="M191.6,77.8c-7.904154.073594-14.801408,5.379174-16.9,13-1.447408-1.239834-3.294229-1.914634-5.2-1.9-4.432191-.00515-8.086403,3.472956-8.3,7.9h67.2c-3.57539-8.203924-12.764209-12.388504-21.3-9.7-2.032292-3.845487-5.416532-6.802244-9.5-8.3-1.74243-.591721-3.561226-.928535-5.4-1Z" fill="#137096"/><path d="M193.3,60.5c0,0,1.6.3,4.2.5c7.4.5,22.9.4,31.8-8.7c11.9-12.2,7.2-36.1,7.2-36.1s-24.1-4.1-36,8.1c-4.1,4.3-6.3,10.1-7.3,15.7-1.047868,6.795855-1.014117,13.714691.1,20.5Z" fill="#1c93be"/><circle style="mix-blend-mode:screen" r="6.4" transform="translate(210.3 40.9)" fill="#82e6f1"/><circle style="mix-blend-mode:screen" r="2.6" transform="translate(220.5 31.9)" fill="#82e6f1"/></g></g><g transform="translate(100.677099 119.970126)"><path d="M181.8,166.7c0-22.6-.1-45.1.1-67.6.1-6.3-4.1-9.3-9.4-9.3-35.8.2-71.6.1-107.4.1-6.6,0-9.4,2.8-9.4,9.4v135.1c0,5.9,2.9,8.9,8.8,8.9h108.8c5.5,0,8.5-3.1,8.5-8.5Z" transform="matrix(.690583 0 0 0.565508 21.61149 9.070964)" fill="#27a8c9"/><g style="isolation:isolate" transform="matrix(.555113 0 0 0.555113 67.26408 64.182879)"><path style="mix-blend-mode:multiply" d="M69.3,19L36.4,55.2c-.821137.944319-1.281648,2.148733-1.3,3.4c0,1.352604.53732,2.649809,1.493755,3.606245s2.253641,1.493755,3.606245,1.493755h5.5L29.5,80c-.933125.929249-1.47063,2.183427-1.5,3.5c0,2.761424,2.238576,5,5,5h7.4L23.9,108.3c-.785803.91875-1.212112,2.091099-1.2,3.3c0,1.379126.547856,2.701766,1.523045,3.676955s2.297829,1.523045,3.676955,1.523045h37.3v7.1c0,1.883037.748034,3.68895,2.079542,5.020458s3.137421,2.079542,5.020458,2.079542c1.873972.000191,3.669774-.751018,4.985441-2.085481s2.04133-3.140738,2.014559-5.014519v-7.1h37.3c1.379126,0,2.701766-.547856,3.676955-1.523045s1.523045-2.297829,1.523045-3.676955c.012112-1.208901-.414197-2.38125-1.2-3.3L104.1,88.5h7.4c2.761424,0,5-2.238576,5-5c.016165-1.326039-.528617-2.597197-1.5-3.5L98.8,63.7h5.5c2.816652,0,5.1-2.283348,5.1-5.1.029869-1.260058-.437078-2.481304-1.3-3.4L75.2,19c-.738261-.825404-1.792608-1.298043-2.9-1.3-1.134542.010335-2.21664.479244-3,1.3Z" opacity="0.35" fill="#005066"/><path style="mix-blend-mode:screen" d="M66.5,16.4L33.6,52.6c-.821137.944319-1.281648,2.148733-1.3,3.4c0,1.352604.53732,2.649809,1.493755,3.606245s2.253641,1.493755,3.606245,1.493755h5.5L26.7,77.4c-.971383.902803-1.516165,2.173961-1.5,3.5c0,2.761424,2.238576,5,5,5h7.4L21.1,105.7c-.785803.91875-1.212112,2.091099-1.2,3.3c0,1.379126.547856,2.701766,1.523045,3.676955s2.297829,1.523045,3.676955,1.523045h37.3v7.1c-.324427,2.719207.943897,5.382589,3.259459,6.844613s5.26552,1.462023,7.581082,0s3.583886-4.125406,3.259459-6.844613v-7.1h37.3c1.379126,0,2.701766-.547856,3.676955-1.523045s1.523045-2.297829,1.523045-3.676955c.012112-1.208901-.414197-2.38125-1.2-3.3L101.3,85.9h7.4c2.761424,0,5-2.238576,5-5c.016165-1.326039-.528617-2.597197-1.5-3.5L96,61.1h5.5c2.816652,0,5.1-2.283348,5.1-5.1-.018352-1.251267-.478863-2.455681-1.3-3.4L72.4,16.4c-.738261-.825404-1.792608-1.298043-2.9-1.3-1.139529-.013807-2.230845.459097-3,1.3Z" transform="translate(-3.60287 0)" opacity="0.8" fill="#86e5ea"/><circle style="mix-blend-mode:screen" r="8.4" transform="translate(58.7 55.7)" fill="#82e6f1"/><circle style="mix-blend-mode:screen" r="3.4" transform="translate(72.4 69.5)" fill="#82e6f1"/></g></g><g transform="translate(-6.000105 119.970137)"><path d="M181.8,166.7c0-22.6-.1-45.1.1-67.6.1-6.3-4.1-9.3-9.4-9.3-35.8.2-71.6.1-107.4.1-6.6,0-9.4,2.8-9.4,9.4v135.1c0,5.9,2.9,8.9,8.8,8.9h108.8c5.5,0,8.5-3.1,8.5-8.5Z" transform="matrix(.690583 0 0 0.565509 21.61149 9.070798)" fill="#27a8c9"/><g style="isolation:isolate" transform="matrix(.839456 0 0 0.839456-31.716268-25.959275)"><path style="mix-blend-mode:multiply" d="M201.3,149.8c-.087801-1.256469-.322741-2.498294-.7-3.7h-.1c-15.2-35.6-59.8-35.6-74.9,0v0c-3.5,10.2,7.8,15.2,23.8,18.2l-.9,6.1v0c-.8,7.1-1.5,17.1,1.2,22.1v0c2.5,4.9,8.7,4.4,13.4,4.4c16.9,2.4,16.2-12.3,14.5-26.5v0l-.9-6.1c14.4-2.2,24.6-7.9,24.6-14.5Z" opacity="0.35" fill="#005066"/><path style="mix-blend-mode:screen" d="M175.3,178.7c0,16.2-6.8,15.3-15.3,15.3s-15.3.9-15.3-15.3c3.5-62.4,27.1-62.3,30.6,0Z" opacity="0.8" fill="#86e5ea"/><path d="M198.2,146.9c0,8.6-17.1,15.5-38.2,15.5s-38.2-6.9-38.2-15.5s17.1-31,38.2-31s38.2,22.5,38.2,31Z" fill="#1b94bf"/><path style="mix-blend-mode:multiply" d="M160,155.7c-18.5,0-34-5.4-37.5-12.5-9.8,25.3,84.8,25.3,75,0-3.5,7.1-18.9,12.5-37.5,12.5Z" opacity="0.35" fill="#005066"/><circle style="mix-blend-mode:screen" r="6.4" transform="translate(140.1 140)" fill="#82e6f1"/><circle style="mix-blend-mode:screen" r="2.6" transform="translate(150.3 131)" fill="#82e6f1"/></g></g><g transform="matrix(1.74123 0 0 1.74123 136.30867 66.684477)"><g transform="translate(-6.472894-19.989516)"><g id="euD4bfy5OBc37_ts" transform="translate(6.271932,5.034102) scale(0,0)"><path id="euD4bfy5OBc37" d="M32.9,19.2c-.4-3.2,2.9-3,2.2.2c3.2-.4,3.1,2.9-.1,2.2.4,3.2-2.9,3.1-2.2-.1-3.2.3-3.1-2.9.1-2.3Z" transform="translate(-33.950002,-20.424123)" fill="#7de884"/></g><g id="euD4bfy5OBc38_ts" transform="translate(20.964279,14.797315) rotate(-13.056894) scale(0,0)"><path id="euD4bfy5OBc38" d="M32.9,19.2c-.4-3.2,2.9-3,2.2.2c3.2-.4,3.1,2.9-.1,2.2.4,3.2-2.9,3.1-2.2-.1-3.2.3-3.1-2.9.1-2.3Z" transform="translate(-33.950002,-20.424123)" fill="#27a8c9"/></g><g id="euD4bfy5OBc39_ts" transform="translate(24.498154,1.653562) scale(0,0)"><path id="euD4bfy5OBc39" d="M28.3,1.9c.1,2.5-3.9,2.5-3.8,0s3.9-2.5,3.8,0Z" transform="translate(-26.400044,-1.9)" fill="#27a8c9"/></g></g></g><g id="euD4bfy5OBc40_to" transform="translate(30.46542,153.249082)"><g transform="rotate(196.628598) scale(1,-1) translate(-48.303417,-203.204628)"><path d="M50,221.8c.343391.690885.947929,1.216459,1.679855,1.460434s1.530901.186239,2.220145-.160434c.690885-.343391,1.216459-.947929,1.460434-1.679855s.186239-1.530901-.160434-2.220145l-5-10.1-5.3,2.5Z" fill="#197f9d"/><path d="M62.1,205.5l-24.7-22c-.401985-.31064-.892176-.485708-1.4-.5-1.159798,0-2.1.940202-2.1,2.1v33.5c-.000723.521726.213123,1.020794.591374,1.380132s.887623.547328,1.408626.519868c.557998-.002534,1.094185-.217009,1.5-.6l7.4-8.6v.3l5.3-2.5h10.6c1.104569,0,2-.895431,2-2c.049375-.596229-.170759-1.183252-.6-1.6Z" fill="#81e5f0"/><circle r="3.7" transform="translate(39.6 197.2)" fill="#bdfafd"/><circle r="1.7" transform="translate(40.3 206.9)" fill="#bdfafd"/></g></g></svg>
