<svg id="exlSOLP75UJ1" xmlns="http://www.w3.org/2000/svg" xmlns:xlink="http://www.w3.org/1999/xlink" viewBox="0 0 300 300" shape-rendering="geometricPrecision" text-rendering="geometricPrecision">
<style><![CDATA[
#exlSOLP75UJ6_ts {animation: exlSOLP75UJ6_ts__ts 3200ms linear infinite normal forwards}@keyframes exlSOLP75UJ6_ts__ts { 0% {transform: translate(6.271932px,5.034102px) scale(0,0)} 23.125% {transform: translate(6.271932px,5.034102px) scale(0,0);animation-timing-function: cubic-bezier(0.175,0.885,0.32,1.275)} 31.25% {transform: translate(6.271932px,5.034102px) scale(1.6,1.6)} 100% {transform: translate(6.271932px,5.034102px) scale(1.6,1.6)}} #exlSOLP75UJ6 {animation: exlSOLP75UJ6_c_o 3200ms linear infinite normal forwards}@keyframes exlSOLP75UJ6_c_o { 0% {opacity: 1} 31.25% {opacity: 1} 42.5% {opacity: 0} 100% {opacity: 0}} #exlSOLP75UJ7_ts {animation: exlSOLP75UJ7_ts__ts 3200ms linear infinite normal forwards}@keyframes exlSOLP75UJ7_ts__ts { 0% {transform: translate(20.964279px,14.797315px) rotate(-13.056894deg) scale(0,0)} 27.5% {transform: translate(20.964279px,14.797315px) rotate(-13.056894deg) scale(0,0);animation-timing-function: cubic-bezier(0.175,0.885,0.32,1.275)} 35.625% {transform: translate(20.964279px,14.797315px) rotate(-13.056894deg) scale(1.331409,1.331404)} 100% {transform: translate(20.964279px,14.797315px) rotate(-13.056894deg) scale(1.331409,1.331404)}} #exlSOLP75UJ7 {animation: exlSOLP75UJ7_c_o 3200ms linear infinite normal forwards}@keyframes exlSOLP75UJ7_c_o { 0% {opacity: 1} 35.625% {opacity: 1} 50% {opacity: 0} 100% {opacity: 0}} #exlSOLP75UJ8_ts {animation: exlSOLP75UJ8_ts__ts 3200ms linear infinite normal forwards}@keyframes exlSOLP75UJ8_ts__ts { 0% {transform: translate(24.498154px,1.653562px) scale(0,0)} 25% {transform: translate(24.498154px,1.653562px) scale(0,0);animation-timing-function: cubic-bezier(0.175,0.885,0.32,1.275)} 31.875% {transform: translate(24.498154px,1.653562px) scale(1,1)} 100% {transform: translate(24.498154px,1.653562px) scale(1,1)}} #exlSOLP75UJ8 {animation: exlSOLP75UJ8_c_o 3200ms linear infinite normal forwards}@keyframes exlSOLP75UJ8_c_o { 0% {opacity: 1} 33.125% {opacity: 1} 45% {opacity: 0} 100% {opacity: 0}} #exlSOLP75UJ9_to {animation: exlSOLP75UJ9_to__to 3200ms linear infinite normal forwards}@keyframes exlSOLP75UJ9_to__to { 0% {transform: translate(153.538161px,190.84px)} 12.5% {transform: translate(153.538161px,190.84px);animation-timing-function: cubic-bezier(0.165,0.84,0.44,1)} 25% {transform: translate(84.868178px,190.837527px)} 50% {transform: translate(84.868178px,190.84px);animation-timing-function: cubic-bezier(0.895,0.03,0.685,0.22)} 62.5% {transform: translate(153.538161px,190.84px)} 100% {transform: translate(153.538161px,190.84px)}} #exlSOLP75UJ9_ts {animation: exlSOLP75UJ9_ts__ts 3200ms linear infinite normal forwards}@keyframes exlSOLP75UJ9_ts__ts { 0% {transform: scale(0,0);animation-timing-function: cubic-bezier(0.175,0.885,0.32,1.275)} 12.5% {transform: scale(1.97,1.97)} 62.5% {transform: scale(1.97,1.97);animation-timing-function: cubic-bezier(0.6,-0.28,0.735,0.045)} 75% {transform: scale(0,0)} 100% {transform: scale(0,0)}} #exlSOLP75UJ10_ts {animation: exlSOLP75UJ10_ts__ts 3200ms linear infinite normal forwards}@keyframes exlSOLP75UJ10_ts__ts { 0% {transform: translate(155.6px,150.85px) scale(-1,1)} 12.5% {transform: translate(155.6px,150.85px) scale(-1,1);animation-timing-function: cubic-bezier(0.165,0.84,0.44,1)} 25% {transform: translate(155.6px,150.85px) scale(1,1)} 50% {transform: translate(155.6px,150.85px) scale(1,1);animation-timing-function: cubic-bezier(0.895,0.03,0.685,0.22)} 62.5% {transform: translate(155.6px,150.85px) scale(-1,1)} 100% {transform: translate(155.6px,150.85px) scale(-1,1)}}
]]></style>
<path d="M940.02,804.7c-14,74.11-51.5,136.55-115.04,136.55s-82.49-68.62-115.03-136.55c-49.99-104.37,52.23-146.15,115.04-136.55c67.2,10.27,129.82,58.27,115.03,136.55Z" transform="matrix(.073589 0.997289-.997289 0.073589 887.379438-697.509288)" fill="#11b1d5" fill-opacity="0.15" stroke-width="0"/><g transform="translate(0-7.180918)"><g transform="matrix(1.74123 0 0 1.74123 129.896686 118.276387)"><g transform="translate(-1.990053-36.179301)"><g id="exlSOLP75UJ6_ts" transform="translate(6.271932,5.034102) scale(0,0)"><path id="exlSOLP75UJ6" d="M32.9,19.2c-.4-3.2,2.9-3,2.2.2c3.2-.4,3.1,2.9-.1,2.2.4,3.2-2.9,3.1-2.2-.1-3.2.3-3.1-2.9.1-2.3Z" transform="translate(-33.950002,-20.424123)" fill="#7de884"/></g><g id="exlSOLP75UJ7_ts" transform="translate(20.964279,14.797315) rotate(-13.056894) scale(0,0)"><path id="exlSOLP75UJ7" d="M32.9,19.2c-.4-3.2,2.9-3,2.2.2c3.2-.4,3.1,2.9-.1,2.2.4,3.2-2.9,3.1-2.2-.1-3.2.3-3.1-2.9.1-2.3Z" transform="translate(-33.950002,-20.424123)" fill="#27a8c9"/></g><g id="exlSOLP75UJ8_ts" transform="translate(24.498154,1.653562) scale(0,0)"><path id="exlSOLP75UJ8" d="M28.3,1.9c.1,2.5-3.9,2.5-3.8,0s3.9-2.5,3.8,0Z" transform="translate(-26.400044,-1.9)" fill="#27a8c9"/></g></g></g><g id="exlSOLP75UJ9_to" transform="translate(153.538161,190.84)"><g id="exlSOLP75UJ9_ts" transform="scale(0,0)"><g transform="translate(-122.53816,-150.850002)"><g id="exlSOLP75UJ10_ts" transform="translate(155.6,150.85) scale(-1,1)"><g transform="translate(-155.6,-150.85)"><path d="M223,150.9c0-12-.1-24,0-36.1c0-3.3-2.2-4.9-5-4.9h-57.3c-3.6,0-5.1,1.5-5.1,5v72.2c0,3.1,1.6,4.7,4.7,4.7h58.1c2.9,0,4.6-1.6,4.6-4.5Z" fill="#7de884"/><path d="M190.9,150.6h-19.4c-.954859.053129-1.701477.843666-1.7,1.8-.070779.948053.570051,1.802493,1.5,2h39.4c1.011987-.154643,1.719509-1.083265,1.6-2.1-.049702-.917509-.782491-1.650298-1.7-1.7h-19.7Z" opacity="0.3" fill="#00665a"/><path d="M190.7,140h-13.4c-.508262-.031908-1.017854.036038-1.5.2-.454239.072885-.859545.326757-1.123366.703644s-.363629.844607-.276634,1.296356c.081259.866134.740375,1.566445,1.6,1.7h29.6c.452187-.050028.865455-.279215,1.14736-.636295s.408922-.812254.35264-1.263705c.030943-.881525-.548875-1.66842-1.4-1.9h-15Z" opacity="0.3" fill="#00665a"/><path style="mix-blend-mode:screen" d="M189.3,148.7h-19.4c-1.1.2-1.7.8-1.7,1.8-.12002.961788.543078,1.845918,1.5,2h39.4c.970054-.152993,1.663677-1.020022,1.6-2c0-.47739-.189642-.935227-.527208-1.272792s-.795402-.527208-1.272792-.527208h-19.6Z" fill="#89e88b"/><path style="mix-blend-mode:screen" d="M189.3,138.1h-14.8c-.916535.199994-1.5258,1.070372-1.4,2-.00156.901179.70038,1.646991,1.6,1.7h29.5c.954889-.104917,1.659115-.941185,1.6-1.9.05934-.903785-.60033-1.695389-1.5-1.8h-15Z" fill="#89e88b"/><path d="M190.7,161.4h-14.9c-.961457.200793-1.584443,1.135273-1.4,2.1.049397.862367.737633,1.550603,1.6,1.6h29.6c.452187-.050028.865455-.279215,1.14736-.636295s.408922-.812254.35264-1.263705c.064615-.870432-.540446-1.648367-1.4-1.8h-15Z" opacity="0.3" fill="#00665a"/><path style="mix-blend-mode:screen" d="M189.3,159.4h-13.3c-.508523-.040362-1.019817.027811-1.5.2-.916535.199994-1.5258,1.070372-1.4,2c.043742.882587.721681,1.602898,1.6,1.7h29.5c.954889-.104917,1.659115-.941185,1.6-1.9.020376-.911111-.609037-1.708367-1.5-1.9h-15Z" fill="#89e88b"/></g></g><g transform="translate(.000002 0.000014)"><path d="M155.5,150.9c0-12,0-24,.1-36.1c0-3.3-2.2-4.9-5-4.9h-57.4c-3.5,0-5,1.5-5,5v72.2c0,3.1,1.6,4.7,4.7,4.7h58.1c2.9,0,4.5-1.6,4.5-4.5Z" fill="#27a8c9"/><path style="mix-blend-mode:multiply" d="M104.8,146.6c-.144439,2.220587.654353,4.399111,2.2,6L121.7,169c.6.6.9.8,1.5.1c4.9-5.6,9.9-11,14.8-16.6c2.074434-2.357751,2.802909-5.610779,1.932147-8.628069s-3.220458-5.381987-6.232147-6.271931c-3.8-1.1-7.1,0-10,2.5-.4.4-.9,1-1.3,1.1s-.8-.7-1.2-1.1c-3-2.6-6.4-3.6-10.3-2.4-3.826899,1.22593-6.33723,4.888544-6.1,8.9Z" opacity="0.35" fill="#005066"/><path style="mix-blend-mode:screen" d="M103.6,145.5c-.141076,2.190334.659291,4.336772,2.2,5.9c4.9,5.5,9.9,11,14.7,16.5.6.6.9.8,1.5,0c4.9-5.5,9.9-11,14.8-16.6c2.074434-2.357751,2.802909-5.610779,1.932147-8.628069s-3.220458-5.381987-6.232147-6.271931c-3.558401-.988847-7.373874.003175-10,2.6-.4.4-.9,1-1.3,1s-.8-.7-1.2-1.1c-2.750386-2.596904-6.685005-3.513708-10.3-2.4-3.798988,1.322091-6.279275,4.981531-6.1,9Z" opacity="0.8" fill="#86e5ea"/><circle style="mix-blend-mode:screen" r="3.7" transform="translate(110.7 145.8)" fill="#82e6f1"/><circle style="mix-blend-mode:screen" r="1.5" transform="translate(116.5 140.7)" fill="#82e6f1"/></g></g></g></g></g></svg>
